<svg version="1.1" id="Layer_1" xmlns="http://www.w3.org/2000/svg" xmlns:xlink="http://www.w3.org/1999/xlink" x="0px" y="0px"
	 width="100%" viewBox="0 0 512 512" enable-background="new 0 0 512 512" xml:space="preserve">
<path fill="#FFFFFF" opacity="1.000000" stroke="none" 
	d="
M1.000000,149.000000 
	C1.000000,99.692947 1.000000,50.385899 1.000000,1.039423 
	C171.549454,1.039423 342.098907,1.039423 513.000000,1.039423 
	C513.000000,54.353714 513.000000,107.708199 512.632935,161.417007 
	C506.977295,138.497665 479.780182,129.388870 459.705109,141.668518 
	C443.675201,151.473801 427.229370,160.600037 410.951385,169.998657 
	C399.685272,176.503510 388.341675,182.876755 377.168213,189.536102 
	C375.699677,190.411362 374.137695,192.633957 374.131287,194.238556 
	C373.965271,235.714828 373.972595,277.191986 374.109131,318.668457 
	C374.114166,320.187378 375.343262,322.340118 376.646515,323.119171 
	C391.269348,331.860504 405.997864,340.426056 420.740448,348.965576 
	C433.803284,356.532104 446.981567,363.900909 459.995697,371.549622 
	C474.293701,379.952850 492.673370,379.170197 503.568695,366.772827 
	C507.215149,362.623657 509.884186,357.615509 513.000000,353.000000 
	C513.000000,406.304840 513.000000,459.609711 513.000000,512.957275 
	C342.452942,512.957275 171.905853,512.957275 1.000000,512.957275 
	C1.000000,463.979675 1.000000,414.958496 1.366314,365.568909 
	C2.127392,365.712738 2.745608,366.170898 2.884751,366.745117 
	C8.877685,391.478516 31.769876,407.708130 54.969524,407.837646 
	C131.934769,408.267395 208.903976,407.941315 285.871490,408.047089 
	C302.227814,408.069550 316.864990,404.290497 329.057953,392.564850 
	C339.893921,382.144165 346.789490,369.782288 346.864471,354.825165 
	C347.183472,291.186829 347.017578,227.545990 346.957306,163.906143 
	C346.953613,159.998657 346.612610,156.044601 345.958099,152.192169 
	C341.364716,125.156265 319.095551,106.334320 292.108124,106.169456 
	C213.810638,105.691116 135.507843,105.879822 57.208698,106.195450 
	C49.796875,106.225319 41.946831,107.892448 35.079769,110.703659 
	C18.668341,117.422119 7.531865,129.480469 2.916282,147.014175 
	C2.711932,147.790466 1.658130,148.343155 1.000000,149.000000 
z"/>
<path fill="#000000" opacity="1.000000" stroke="none" 
	d="
M1.000000,149.468658 
	C1.658130,148.343155 2.711932,147.790466 2.916282,147.014175 
	C7.531865,129.480469 18.668341,117.422119 35.079769,110.703659 
	C41.946831,107.892448 49.796875,106.225319 57.208698,106.195450 
	C135.507843,105.879822 213.810638,105.691116 292.108124,106.169456 
	C319.095551,106.334320 341.364716,125.156265 345.958099,152.192169 
	C346.612610,156.044601 346.953613,159.998657 346.957306,163.906143 
	C347.017578,227.545990 347.183472,291.186829 346.864471,354.825165 
	C346.789490,369.782288 339.893921,382.144165 329.057953,392.564850 
	C316.864990,404.290497 302.227814,408.069550 285.871490,408.047089 
	C208.903976,407.941315 131.934769,408.267395 54.969524,407.837646 
	C31.769876,407.708130 8.877685,391.478516 2.884751,366.745117 
	C2.745608,366.170898 2.127392,365.712738 1.366314,365.100220 
	C1.000000,293.312439 1.000000,221.624878 1.000000,149.468658 
z"/>
<path fill="#000000" opacity="1.000000" stroke="none" 
	d="
M513.000000,352.531342 
	C509.884186,357.615509 507.215149,362.623657 503.568695,366.772827 
	C492.673370,379.170197 474.293701,379.952850 459.995697,371.549622 
	C446.981567,363.900909 433.803284,356.532104 420.740448,348.965576 
	C405.997864,340.426056 391.269348,331.860504 376.646515,323.119171 
	C375.343262,322.340118 374.114166,320.187378 374.109131,318.668457 
	C373.972595,277.191986 373.965271,235.714828 374.131287,194.238556 
	C374.137695,192.633957 375.699677,190.411362 377.168213,189.536102 
	C388.341675,182.876755 399.685272,176.503510 410.951385,169.998657 
	C427.229370,160.600037 443.675201,151.473801 459.705109,141.668518 
	C479.780182,129.388870 506.977295,138.497665 512.632935,161.885666 
	C513.000000,225.354233 513.000000,288.708466 513.000000,352.531342 
z"/>
</svg>